<mxfile host="app.diagrams.net" agent="Mozilla/5.0 (Windows NT 10.0; Win64; x64) AppleWebKit/537.36 (KHTML, like Gecko) Chrome/132.0.0.0 YaBrowser/25.2.0.0 Safari/537.36" version="26.2.9">
  <diagram name="Страница — 1" id="Yw4ov9gpNOy_3WpWYniW">
    <mxGraphModel dx="468" dy="791" grid="1" gridSize="10" guides="1" tooltips="1" connect="1" arrows="1" fold="1" page="1" pageScale="1" pageWidth="827" pageHeight="1169" math="0" shadow="0">
      <root>
        <mxCell id="0" />
        <mxCell id="1" parent="0" />
        <mxCell id="KiGLNT_mpz7ua4fJ1Nen-10" value="" style="rounded=0;whiteSpace=wrap;html=1;fillColor=none;" vertex="1" parent="1">
          <mxGeometry x="370" y="270" width="160" height="230" as="geometry" />
        </mxCell>
        <mxCell id="KiGLNT_mpz7ua4fJ1Nen-6" value="" style="rounded=0;whiteSpace=wrap;html=1;fillColor=none;" vertex="1" parent="1">
          <mxGeometry x="174" y="560" width="160" height="490" as="geometry" />
        </mxCell>
        <mxCell id="KiGLNT_mpz7ua4fJ1Nen-47" value="" style="edgeStyle=orthogonalEdgeStyle;rounded=0;orthogonalLoop=1;jettySize=auto;html=1;" edge="1" parent="1" source="KiGLNT_mpz7ua4fJ1Nen-1" target="KiGLNT_mpz7ua4fJ1Nen-11">
          <mxGeometry relative="1" as="geometry" />
        </mxCell>
        <mxCell id="KiGLNT_mpz7ua4fJ1Nen-1" value="&lt;font style=&quot;font-size: 17px;&quot;&gt;Отдел по управлению внутренними бизнес-процессами&lt;/font&gt;" style="rounded=0;whiteSpace=wrap;html=1;" vertex="1" parent="1">
          <mxGeometry x="355" y="80" width="190" height="110" as="geometry" />
        </mxCell>
        <mxCell id="KiGLNT_mpz7ua4fJ1Nen-3" value="Начальник аналитического отдела" style="rounded=0;whiteSpace=wrap;html=1;" vertex="1" parent="1">
          <mxGeometry x="194" y="620" width="120" height="60" as="geometry" />
        </mxCell>
        <mxCell id="KiGLNT_mpz7ua4fJ1Nen-7" value="&lt;font style=&quot;font-size: 15px;&quot;&gt;Аналитический отдел&lt;/font&gt;" style="text;whiteSpace=wrap;html=1;align=center;" vertex="1" parent="1">
          <mxGeometry x="179" y="565" width="150" height="40" as="geometry" />
        </mxCell>
        <mxCell id="KiGLNT_mpz7ua4fJ1Nen-8" value="&lt;div&gt;&lt;span style=&quot;background-color: transparent; color: light-dark(rgb(0, 0, 0), rgb(255, 255, 255));&quot;&gt;Директор отдела&lt;/span&gt;&lt;/div&gt;" style="rounded=0;whiteSpace=wrap;html=1;" vertex="1" parent="1">
          <mxGeometry x="390" y="310" width="120" height="60" as="geometry" />
        </mxCell>
        <mxCell id="KiGLNT_mpz7ua4fJ1Nen-9" value="Заместитель директора" style="rounded=0;whiteSpace=wrap;html=1;" vertex="1" parent="1">
          <mxGeometry x="390" y="420" width="120" height="60" as="geometry" />
        </mxCell>
        <mxCell id="KiGLNT_mpz7ua4fJ1Nen-49" value="" style="edgeStyle=orthogonalEdgeStyle;rounded=0;orthogonalLoop=1;jettySize=auto;html=1;entryX=0.5;entryY=0;entryDx=0;entryDy=0;" edge="1" parent="1" source="KiGLNT_mpz7ua4fJ1Nen-10" target="KiGLNT_mpz7ua4fJ1Nen-17">
          <mxGeometry relative="1" as="geometry" />
        </mxCell>
        <mxCell id="KiGLNT_mpz7ua4fJ1Nen-11" value="&lt;font style=&quot;font-size: 15px;&quot;&gt;Руководство отдела&lt;/font&gt;" style="text;whiteSpace=wrap;html=1;align=center;" vertex="1" parent="1">
          <mxGeometry x="375" y="270" width="150" height="40" as="geometry" />
        </mxCell>
        <mxCell id="KiGLNT_mpz7ua4fJ1Nen-43" value="" style="edgeStyle=orthogonalEdgeStyle;rounded=0;orthogonalLoop=1;jettySize=auto;html=1;" edge="1" parent="1" source="KiGLNT_mpz7ua4fJ1Nen-12" target="KiGLNT_mpz7ua4fJ1Nen-13">
          <mxGeometry relative="1" as="geometry" />
        </mxCell>
        <mxCell id="KiGLNT_mpz7ua4fJ1Nen-12" value="Главный бизнес-аналитик" style="rounded=0;whiteSpace=wrap;html=1;" vertex="1" parent="1">
          <mxGeometry x="194" y="700" width="120" height="60" as="geometry" />
        </mxCell>
        <mxCell id="KiGLNT_mpz7ua4fJ1Nen-44" value="" style="edgeStyle=orthogonalEdgeStyle;rounded=0;orthogonalLoop=1;jettySize=auto;html=1;" edge="1" parent="1" source="KiGLNT_mpz7ua4fJ1Nen-13" target="KiGLNT_mpz7ua4fJ1Nen-14">
          <mxGeometry relative="1" as="geometry" />
        </mxCell>
        <mxCell id="KiGLNT_mpz7ua4fJ1Nen-13" value="Аналитик по бизнес-процессам" style="rounded=0;whiteSpace=wrap;html=1;" vertex="1" parent="1">
          <mxGeometry x="194" y="790" width="120" height="60" as="geometry" />
        </mxCell>
        <mxCell id="KiGLNT_mpz7ua4fJ1Nen-45" value="" style="edgeStyle=orthogonalEdgeStyle;rounded=0;orthogonalLoop=1;jettySize=auto;html=1;" edge="1" parent="1" source="KiGLNT_mpz7ua4fJ1Nen-14" target="KiGLNT_mpz7ua4fJ1Nen-16">
          <mxGeometry relative="1" as="geometry" />
        </mxCell>
        <mxCell id="KiGLNT_mpz7ua4fJ1Nen-14" value="Аналитик данных" style="rounded=0;whiteSpace=wrap;html=1;" vertex="1" parent="1">
          <mxGeometry x="194" y="880" width="120" height="60" as="geometry" />
        </mxCell>
        <mxCell id="KiGLNT_mpz7ua4fJ1Nen-16" value="Младший аналитик" style="rounded=0;whiteSpace=wrap;html=1;" vertex="1" parent="1">
          <mxGeometry x="194" y="970" width="120" height="60" as="geometry" />
        </mxCell>
        <mxCell id="KiGLNT_mpz7ua4fJ1Nen-17" value="" style="rounded=0;whiteSpace=wrap;html=1;fillColor=none;" vertex="1" parent="1">
          <mxGeometry x="370" y="560" width="160" height="490" as="geometry" />
        </mxCell>
        <mxCell id="KiGLNT_mpz7ua4fJ1Nen-18" value="Руководитель отдела автоматизации" style="rounded=0;whiteSpace=wrap;html=1;" vertex="1" parent="1">
          <mxGeometry x="390" y="620" width="120" height="60" as="geometry" />
        </mxCell>
        <mxCell id="KiGLNT_mpz7ua4fJ1Nen-19" value="&lt;font style=&quot;font-size: 15px;&quot;&gt;Отдел автоматизации&lt;/font&gt;" style="text;whiteSpace=wrap;html=1;align=center;" vertex="1" parent="1">
          <mxGeometry x="375" y="565" width="150" height="40" as="geometry" />
        </mxCell>
        <mxCell id="KiGLNT_mpz7ua4fJ1Nen-37" value="" style="edgeStyle=orthogonalEdgeStyle;rounded=0;orthogonalLoop=1;jettySize=auto;html=1;" edge="1" parent="1" source="KiGLNT_mpz7ua4fJ1Nen-20" target="KiGLNT_mpz7ua4fJ1Nen-21">
          <mxGeometry relative="1" as="geometry" />
        </mxCell>
        <mxCell id="KiGLNT_mpz7ua4fJ1Nen-20" value="Главный инженер по автоматизации" style="rounded=0;whiteSpace=wrap;html=1;" vertex="1" parent="1">
          <mxGeometry x="390" y="700" width="120" height="60" as="geometry" />
        </mxCell>
        <mxCell id="KiGLNT_mpz7ua4fJ1Nen-38" value="" style="edgeStyle=orthogonalEdgeStyle;rounded=0;orthogonalLoop=1;jettySize=auto;html=1;" edge="1" parent="1" source="KiGLNT_mpz7ua4fJ1Nen-21" target="KiGLNT_mpz7ua4fJ1Nen-22">
          <mxGeometry relative="1" as="geometry" />
        </mxCell>
        <mxCell id="KiGLNT_mpz7ua4fJ1Nen-21" value="Системный архитектор" style="rounded=0;whiteSpace=wrap;html=1;" vertex="1" parent="1">
          <mxGeometry x="390" y="790" width="120" height="60" as="geometry" />
        </mxCell>
        <mxCell id="KiGLNT_mpz7ua4fJ1Nen-39" value="" style="edgeStyle=orthogonalEdgeStyle;rounded=0;orthogonalLoop=1;jettySize=auto;html=1;" edge="1" parent="1" source="KiGLNT_mpz7ua4fJ1Nen-22" target="KiGLNT_mpz7ua4fJ1Nen-23">
          <mxGeometry relative="1" as="geometry" />
        </mxCell>
        <mxCell id="KiGLNT_mpz7ua4fJ1Nen-22" value="Программист-разработчик" style="rounded=0;whiteSpace=wrap;html=1;" vertex="1" parent="1">
          <mxGeometry x="390" y="880" width="120" height="60" as="geometry" />
        </mxCell>
        <mxCell id="KiGLNT_mpz7ua4fJ1Nen-23" value="Специалист по технической поддержке" style="rounded=0;whiteSpace=wrap;html=1;" vertex="1" parent="1">
          <mxGeometry x="390" y="970" width="120" height="60" as="geometry" />
        </mxCell>
        <mxCell id="KiGLNT_mpz7ua4fJ1Nen-24" value="" style="rounded=0;whiteSpace=wrap;html=1;fillColor=none;" vertex="1" parent="1">
          <mxGeometry x="570" y="560" width="160" height="530" as="geometry" />
        </mxCell>
        <mxCell id="KiGLNT_mpz7ua4fJ1Nen-32" value="" style="edgeStyle=orthogonalEdgeStyle;rounded=0;orthogonalLoop=1;jettySize=auto;html=1;" edge="1" parent="1" source="KiGLNT_mpz7ua4fJ1Nen-25" target="KiGLNT_mpz7ua4fJ1Nen-27">
          <mxGeometry relative="1" as="geometry" />
        </mxCell>
        <mxCell id="KiGLNT_mpz7ua4fJ1Nen-25" value="Руководитель отдела обучения" style="rounded=0;whiteSpace=wrap;html=1;" vertex="1" parent="1">
          <mxGeometry x="590" y="630" width="120" height="60" as="geometry" />
        </mxCell>
        <mxCell id="KiGLNT_mpz7ua4fJ1Nen-26" value="&lt;font style=&quot;font-size: 15px;&quot;&gt;Отдел обучения и адаптации персонала&lt;/font&gt;" style="text;whiteSpace=wrap;html=1;align=center;" vertex="1" parent="1">
          <mxGeometry x="575" y="565" width="150" height="40" as="geometry" />
        </mxCell>
        <mxCell id="KiGLNT_mpz7ua4fJ1Nen-33" value="" style="edgeStyle=orthogonalEdgeStyle;rounded=0;orthogonalLoop=1;jettySize=auto;html=1;" edge="1" parent="1" source="KiGLNT_mpz7ua4fJ1Nen-27" target="KiGLNT_mpz7ua4fJ1Nen-28">
          <mxGeometry relative="1" as="geometry" />
        </mxCell>
        <mxCell id="KiGLNT_mpz7ua4fJ1Nen-27" value="Методист по обучению" style="rounded=0;whiteSpace=wrap;html=1;" vertex="1" parent="1">
          <mxGeometry x="590" y="720" width="120" height="60" as="geometry" />
        </mxCell>
        <mxCell id="KiGLNT_mpz7ua4fJ1Nen-34" value="" style="edgeStyle=orthogonalEdgeStyle;rounded=0;orthogonalLoop=1;jettySize=auto;html=1;" edge="1" parent="1" source="KiGLNT_mpz7ua4fJ1Nen-28" target="KiGLNT_mpz7ua4fJ1Nen-29">
          <mxGeometry relative="1" as="geometry" />
        </mxCell>
        <mxCell id="KiGLNT_mpz7ua4fJ1Nen-28" value="Тренер по корпоративным системам" style="rounded=0;whiteSpace=wrap;html=1;" vertex="1" parent="1">
          <mxGeometry x="590" y="810" width="120" height="60" as="geometry" />
        </mxCell>
        <mxCell id="KiGLNT_mpz7ua4fJ1Nen-35" value="" style="edgeStyle=orthogonalEdgeStyle;rounded=0;orthogonalLoop=1;jettySize=auto;html=1;" edge="1" parent="1" source="KiGLNT_mpz7ua4fJ1Nen-29" target="KiGLNT_mpz7ua4fJ1Nen-30">
          <mxGeometry relative="1" as="geometry" />
        </mxCell>
        <mxCell id="KiGLNT_mpz7ua4fJ1Nen-29" value="Координатор адаптации персонала" style="rounded=0;whiteSpace=wrap;html=1;" vertex="1" parent="1">
          <mxGeometry x="590" y="900" width="120" height="60" as="geometry" />
        </mxCell>
        <mxCell id="KiGLNT_mpz7ua4fJ1Nen-30" value="Специалист по тестированию знаний" style="rounded=0;whiteSpace=wrap;html=1;" vertex="1" parent="1">
          <mxGeometry x="590" y="990" width="120" height="60" as="geometry" />
        </mxCell>
        <mxCell id="KiGLNT_mpz7ua4fJ1Nen-42" value="" style="endArrow=classic;html=1;rounded=0;exitX=0.5;exitY=1;exitDx=0;exitDy=0;" edge="1" parent="1" source="KiGLNT_mpz7ua4fJ1Nen-3" target="KiGLNT_mpz7ua4fJ1Nen-12">
          <mxGeometry width="50" height="50" relative="1" as="geometry">
            <mxPoint x="310" y="710" as="sourcePoint" />
            <mxPoint x="360" y="660" as="targetPoint" />
          </mxGeometry>
        </mxCell>
        <mxCell id="KiGLNT_mpz7ua4fJ1Nen-46" value="" style="endArrow=classic;html=1;rounded=0;exitX=0.5;exitY=1;exitDx=0;exitDy=0;entryX=0.5;entryY=0;entryDx=0;entryDy=0;" edge="1" parent="1" source="KiGLNT_mpz7ua4fJ1Nen-18" target="KiGLNT_mpz7ua4fJ1Nen-20">
          <mxGeometry width="50" height="50" relative="1" as="geometry">
            <mxPoint x="264" y="690" as="sourcePoint" />
            <mxPoint x="264" y="710" as="targetPoint" />
          </mxGeometry>
        </mxCell>
        <mxCell id="KiGLNT_mpz7ua4fJ1Nen-48" value="" style="endArrow=classic;html=1;rounded=0;exitX=0.5;exitY=1;exitDx=0;exitDy=0;entryX=0.5;entryY=0;entryDx=0;entryDy=0;" edge="1" parent="1" source="KiGLNT_mpz7ua4fJ1Nen-10" target="KiGLNT_mpz7ua4fJ1Nen-24">
          <mxGeometry width="50" height="50" relative="1" as="geometry">
            <mxPoint x="560" y="450" as="sourcePoint" />
            <mxPoint x="610" y="400" as="targetPoint" />
          </mxGeometry>
        </mxCell>
        <mxCell id="KiGLNT_mpz7ua4fJ1Nen-50" value="" style="endArrow=classic;html=1;rounded=0;entryX=0.5;entryY=0;entryDx=0;entryDy=0;exitX=0.5;exitY=1;exitDx=0;exitDy=0;" edge="1" parent="1" source="KiGLNT_mpz7ua4fJ1Nen-10" target="KiGLNT_mpz7ua4fJ1Nen-6">
          <mxGeometry width="50" height="50" relative="1" as="geometry">
            <mxPoint x="400" y="550" as="sourcePoint" />
            <mxPoint x="450" y="500" as="targetPoint" />
          </mxGeometry>
        </mxCell>
        <mxCell id="KiGLNT_mpz7ua4fJ1Nen-51" value="" style="rounded=0;whiteSpace=wrap;html=1;fillColor=none;" vertex="1" parent="1">
          <mxGeometry x="760" y="560" width="160" height="530" as="geometry" />
        </mxCell>
        <mxCell id="KiGLNT_mpz7ua4fJ1Nen-52" value="" style="edgeStyle=orthogonalEdgeStyle;rounded=0;orthogonalLoop=1;jettySize=auto;html=1;" edge="1" parent="1" source="KiGLNT_mpz7ua4fJ1Nen-53" target="KiGLNT_mpz7ua4fJ1Nen-56">
          <mxGeometry relative="1" as="geometry" />
        </mxCell>
        <mxCell id="KiGLNT_mpz7ua4fJ1Nen-53" value="Начальник отдела методологии" style="rounded=0;whiteSpace=wrap;html=1;" vertex="1" parent="1">
          <mxGeometry x="780" y="630" width="120" height="60" as="geometry" />
        </mxCell>
        <mxCell id="KiGLNT_mpz7ua4fJ1Nen-54" value="&lt;font style=&quot;font-size: 15px;&quot;&gt;Отдел методологии и контроля&lt;/font&gt;" style="text;whiteSpace=wrap;html=1;align=center;" vertex="1" parent="1">
          <mxGeometry x="765" y="565" width="150" height="40" as="geometry" />
        </mxCell>
        <mxCell id="KiGLNT_mpz7ua4fJ1Nen-55" value="" style="edgeStyle=orthogonalEdgeStyle;rounded=0;orthogonalLoop=1;jettySize=auto;html=1;" edge="1" parent="1" source="KiGLNT_mpz7ua4fJ1Nen-56" target="KiGLNT_mpz7ua4fJ1Nen-58">
          <mxGeometry relative="1" as="geometry" />
        </mxCell>
        <mxCell id="KiGLNT_mpz7ua4fJ1Nen-56" value="Эксперт по внутренним регламентам" style="rounded=0;whiteSpace=wrap;html=1;" vertex="1" parent="1">
          <mxGeometry x="780" y="720" width="120" height="60" as="geometry" />
        </mxCell>
        <mxCell id="KiGLNT_mpz7ua4fJ1Nen-57" value="" style="edgeStyle=orthogonalEdgeStyle;rounded=0;orthogonalLoop=1;jettySize=auto;html=1;" edge="1" parent="1" source="KiGLNT_mpz7ua4fJ1Nen-58" target="KiGLNT_mpz7ua4fJ1Nen-60">
          <mxGeometry relative="1" as="geometry" />
        </mxCell>
        <mxCell id="KiGLNT_mpz7ua4fJ1Nen-58" value="Специалист по аудиту бизнес-процессов" style="rounded=0;whiteSpace=wrap;html=1;" vertex="1" parent="1">
          <mxGeometry x="780" y="810" width="120" height="60" as="geometry" />
        </mxCell>
        <mxCell id="KiGLNT_mpz7ua4fJ1Nen-59" value="" style="edgeStyle=orthogonalEdgeStyle;rounded=0;orthogonalLoop=1;jettySize=auto;html=1;" edge="1" parent="1" source="KiGLNT_mpz7ua4fJ1Nen-60" target="KiGLNT_mpz7ua4fJ1Nen-61">
          <mxGeometry relative="1" as="geometry" />
        </mxCell>
        <mxCell id="KiGLNT_mpz7ua4fJ1Nen-60" value="Контролер выполнения процедур" style="rounded=0;whiteSpace=wrap;html=1;" vertex="1" parent="1">
          <mxGeometry x="780" y="900" width="120" height="60" as="geometry" />
        </mxCell>
        <mxCell id="KiGLNT_mpz7ua4fJ1Nen-61" value="Аналитик по управлению качеством" style="rounded=0;whiteSpace=wrap;html=1;" vertex="1" parent="1">
          <mxGeometry x="780" y="990" width="120" height="60" as="geometry" />
        </mxCell>
        <mxCell id="KiGLNT_mpz7ua4fJ1Nen-62" value="" style="endArrow=classic;html=1;rounded=0;entryX=0.5;entryY=0;entryDx=0;entryDy=0;" edge="1" parent="1" target="KiGLNT_mpz7ua4fJ1Nen-51">
          <mxGeometry width="50" height="50" relative="1" as="geometry">
            <mxPoint x="450" y="500" as="sourcePoint" />
            <mxPoint x="660" y="570" as="targetPoint" />
          </mxGeometry>
        </mxCell>
        <mxCell id="KiGLNT_mpz7ua4fJ1Nen-64" value="" style="endArrow=classic;html=1;rounded=0;exitX=0.5;exitY=1;exitDx=0;exitDy=0;entryX=0.5;entryY=0;entryDx=0;entryDy=0;" edge="1" parent="1" source="KiGLNT_mpz7ua4fJ1Nen-8" target="KiGLNT_mpz7ua4fJ1Nen-9">
          <mxGeometry width="50" height="50" relative="1" as="geometry">
            <mxPoint x="440" y="360" as="sourcePoint" />
            <mxPoint x="620" y="410" as="targetPoint" />
          </mxGeometry>
        </mxCell>
      </root>
    </mxGraphModel>
  </diagram>
</mxfile>
